<svg width="720" height="220" viewBox="0 0 720 220" fill="none" xmlns="http://www.w3.org/2000/svg">
<rect width="720" height="220" rx="36" fill="#0F172A"/>
<g transform="translate(38,34) scale(.30)">
<rect width="512" height="512" rx="118" fill="#0F172A"/>
<path d="M256 84C161 84 84 161 84 256s77 172 172 172 172-77 172-172S351 84 256 84Z" fill="url(#g)"/>
<path d="M256 132C207 132 167 172 167 221c0 75 89 159 89 159s89-84 89-159c0-49-40-89-89-89Z" fill="white"/>
<circle cx="221" cy="215" r="17" fill="#16A34A"/>
<circle cx="256" cy="201" r="18" fill="#16A34A"/>
<circle cx="291" cy="215" r="17" fill="#16A34A"/>
<path d="M218 275c16-31 60-31 76 0 8 16-4 31-22 25-9-3-23-3-32 0-18 6-30-9-22-25Z" fill="#16A34A"/>
<path d="M128 384c70-54 161-66 256-27" stroke="white" stroke-width="28" stroke-linecap="round" opacity=".95"/>
</g>
<text x="210" y="102" fill="white" font-family="Arial, sans-serif" font-size="56" font-weight="800">Amigo<tspan fill="#16A34A">Pet</tspan></text>
<text x="214" y="144" fill="#CBD5E1" font-family="Arial, sans-serif" font-size="22" font-weight="600">Seu pet bem cuidado, seu negócio pronto para crescer</text>
<defs><linearGradient id="g" x1="84" y1="84" x2="428" y2="428"><stop stop-color="#16A34A"/><stop offset="1" stop-color="#0EA5E9"/></linearGradient></defs>
</svg>