<svg width="512" height="512" viewBox="0 0 512 512" fill="none" xmlns="http://www.w3.org/2000/svg"><rect width="512" height="512" rx="118" fill="#0F172A"/><circle cx="256" cy="256" r="166" fill="#16A34A"/><path d="M256 118C205 118 164 159 164 210c0 78 92 166 92 166s92-88 92-166c0-51-41-92-92-92Z" fill="#fff"/><circle cx="220" cy="206" r="17" fill="#16A34A"/><circle cx="256" cy="191" r="18" fill="#16A34A"/><circle cx="292" cy="206" r="17" fill="#16A34A"/><path d="M217 272c17-34 61-34 78 0 8 17-5 31-23 25-10-3-22-3-32 0-18 6-31-8-23-25Z" fill="#16A34A"/><path d="M82 378c76-58 194-67 348-8" stroke="white" stroke-width="30" stroke-linecap="round"/></svg>