<svg width="720" height="220" viewBox="0 0 720 220" fill="none" xmlns="http://www.w3.org/2000/svg"><rect width="720" height="220" rx="36" fill="#0F172A"/><circle cx="110" cy="110" r="64" fill="#16A34A"/><path d="M110 53C88 53 70 71 70 93c0 34 40 72 40 72s40-38 40-72c0-22-18-40-40-40Z" fill="#fff"/><circle cx="94" cy="91" r="8" fill="#16A34A"/><circle cx="110" cy="85" r="8" fill="#16A34A"/><circle cx="126" cy="91" r="8" fill="#16A34A"/><path d="M93 119c8-15 26-15 34 0 4 8-2 14-10 12-4-1-10-1-14 0-8 2-14-4-10-12Z" fill="#16A34A"/><path d="M46 158c33-25 84-29 150-4" stroke="white" stroke-width="13" stroke-linecap="round"/><text x="210" y="102" fill="white" font-family="Arial, sans-serif" font-size="56" font-weight="800">Amigo<tspan fill="#16A34A">Pet</tspan></text><text x="214" y="144" fill="#CBD5E1" font-family="Arial, sans-serif" font-size="22" font-weight="600">Seu pet bem cuidado, seu negócio pronto para crescer</text></svg>