<svg width="720" height="220" viewBox="0 0 720 220" fill="none" xmlns="http://www.w3.org/2000/svg">
  <rect width="720" height="220" rx="42" fill="#0F172A"/>
  <circle cx="112" cy="110" r="66" fill="url(#g1)"/>
  <path d="M80 118C80 93 96 76 112 76C128 76 144 93 144 118C144 143 128 158 112 158C96 158 80 143 80 118Z" fill="white" opacity="0.96"/>
  <circle cx="91" cy="86" r="13" fill="white" opacity="0.96"/>
  <circle cx="133" cy="86" r="13" fill="white" opacity="0.96"/>
  <circle cx="71" cy="112" r="12" fill="white" opacity="0.96"/>
  <circle cx="153" cy="112" r="12" fill="white" opacity="0.96"/>
  <path d="M105 124C109 128 115 128 119 124" stroke="#0F172A" stroke-width="5" stroke-linecap="round"/>
  <path d="M92 58C109 42 137 44 154 62" stroke="#0EA5E9" stroke-width="10" stroke-linecap="round"/>
  <path d="M154 62C175 85 175 134 151 160" stroke="#16A34A" stroke-width="10" stroke-linecap="round"/>
  <text x="205" y="99" fill="white" font-size="54" font-family="Inter, Arial, sans-serif" font-weight="800">AmigoPet</text>
  <text x="209" y="140" fill="#B7C7D8" font-size="22" font-family="Inter, Arial, sans-serif" font-weight="500">Passeios seguros, pets felizes.</text>
  <text x="209" y="171" fill="#7DD3FC" font-size="17" font-family="Inter, Arial, sans-serif" font-weight="700">Powered by Just Engine ⚡</text>
  <defs>
    <linearGradient id="g1" x1="46" y1="44" x2="178" y2="176" gradientUnits="userSpaceOnUse">
      <stop stop-color="#16A34A"/>
      <stop offset="1" stop-color="#0EA5E9"/>
    </linearGradient>
  </defs>
</svg>